# xmcd
#
# Track frame offsets:
#	150
#	15258
#	30101
#	45888
#	64727
#	78010
#	96895
#	123969
#	141155
#	156611
#	172102
#	189203
#	204673
#	216349
#
# Disc length: 3105 seconds
#
# Revision: 1
# Processed by: cddbd v1.4PL0 Copyright (c) Steve Scherf et al.
# Submitted via: audiograbber 1.81.00
#
DISCID=af0c1f0e
DTITLE=Patricia Lewis - Jy's Die Een
DYEAR=1900
DGENRE=
TTITLE0=Moonlight Stranger
TTITLE1=Remember When
TTITLE2=Jy's Die Een
TTITLE3=Sleep Angel Sleep
TTITLE4=By My Vanaand
TTITLE5=Then There's Me
TTITLE6=70's Medley
TTITLE7=You Needed Me
TTITLE8=T'rug Na My Tuiste
TTITLE9=To Turn The Stone
TTITLE10=As Ek Jou Net Lief Kan He
TTITLE11=Ek Wil Dankie Se
TTITLE12=I'm Thinking Tonight Of My Blue Eyes
TTITLE13=Breekbare Hart
EXTD=
EXTT0=
EXTT1=
EXTT2=
EXTT3=
EXTT4=
EXTT5=
EXTT6=7.1  Have I Told You Lately That I Love You?\n7.2  Top Of the World\n7.3 
EXTT6=He's Got the Whole World in His Hands\n7.4  In the Summer Night\n7.5  Ha
EXTT6=ve I Told You Lately That I Love You?
EXTT7=
EXTT8=
EXTT9=
EXTT10=
EXTT11=
EXTT12=
EXTT13=
PLAYORDER=
